PathFileType	4	(X/Y/Z)	C:/Users/opensim2020/Desktop/walking_exp_matlab/subject01_walking12_straight_04.trc	
DataRate	CameraRate	NumFrames	NumMarkers	Units	OrigDataRate	OrigDataStartFrame	OrigNumFrames	
100.00	100.00	4	44	mm	100.00	2458	172	
Frame#	Time	LFHD			RFHD			LBHD			RBHD			C7			T10			CLAV			STRN			RBAK			LSHO			LUPA			LELB			LFRM			LWRA			LWRB			LFIN			RSHO			RUPA			RELB			RFRM			RWRA			RWRB			RFIN			LASI			RASI			LPSI			RPSI			LTHI			LKNE			LTIB			LANK			LHEE			LTOE			RTHI			RKNE			RTIB			RANK			RHEE			RTOE			*39			*40			*41			*42			*43			
		X1	Y1	Z1	X2	Y2	Z2	X3	Y3	Z3	X4	Y4	Z4	X5	Y5	Z5	X6	Y6	Z6	X7	Y7	Z7	X8	Y8	Z8	X9	Y9	Z9	X10	Y10	Z10	X11	Y11	Z11	X12	Y12	Z12	X13	Y13	Z13	X14	Y14	Z14	X15	Y15	Z15	X16	Y16	Z16	X17	Y17	Z17	X18	Y18	Z18	X19	Y19	Z19	X20	Y20	Z20	X21	Y21	Z21	X22	Y22	Z22	X23	Y23	Z23	X24	Y24	Z24	X25	Y25	Z25	X26	Y26	Z26	X27	Y27	Z27	X28	Y28	Z28	X29	Y29	Z29	X30	Y30	Z30	X31	Y31	Z31	X32	Y32	Z32	X33	Y33	Z33	X34	Y34	Z34	X35	Y35	Z35	X36	Y36	Z36	X37	Y37	Z37	X38	Y38	Z38	X39	Y39	Z39	X40	Y40	Z40	X41	Y41	Z41	X42	Y42	Z42	X43	Y43	Z43	X44	Y44	Z44	

87	0.860	1578.74109	-55.89140	1640.79321	1466.46313	-72.70036	1644.55957	1567.78223	65.97952	1616.85266	1447.53992	51.43929	1620.58350	1520.64404	130.51344	1416.26160	1496.54907	165.71643	1121.01416	1520.07947	-11.87662	1345.10144	1517.03442	-54.68770	1192.44397	1432.66016	186.57903	1223.77673	1682.10352	53.71460	1366.71570	1751.49109	109.16758	1181.37659	1736.95239	143.98978	1035.56873	1755.51038	130.25706	922.35211	1732.58862	76.53519	793.72833	1753.31079	133.74814	799.77014	1756.20349	105.59008	718.68890	1366.86841	48.52394	1381.02734	1256.22705	108.73400	1188.55579	1241.26697	102.80075	1060.92908	1221.88647	30.03294	958.67340	1258.06946	-87.22772	887.53937	1215.77319	-52.46606	867.98590	1224.19141	-118.83579	817.06506	1594.67004	-22.77271	921.60345	1378.63611	-7.27306	914.88879	1558.48755	167.41753	927.08997	1414.47363	174.84924	931.10449	1650.17542	-75.70668	606.64587	1628.64880	-102.66237	476.17474	1648.88855	-82.07681	287.65842	1603.19019	-70.07457	69.67471	1554.85291	-21.83941	39.08771	1597.43274	-217.82213	34.05757	1321.89978	90.27653	585.59888	1337.29529	116.88020	426.25357	1343.22412	264.11948	325.22971	1388.39746	407.16730	174.58856	1444.23438	456.48074	187.08463	1403.22070	361.37466	37.18238	1488.91638	-66.44720	1679.35706	-3102.07129	1972.98096	1023.99274	-3140.68311	2012.43457	1022.02423						 
88	0.870	1580.96619	-67.33072	1641.02161	1468.61450	-83.85281	1645.03528	1570.15601	54.53742	1617.23669	1449.85425	40.18297	1621.21423	1522.79321	119.35922	1416.57471	1498.22729	154.27408	1121.41394	1521.77246	-23.11819	1345.71448	1518.33972	-66.07574	1193.15039	1434.54260	175.52585	1224.33936	1683.95007	42.04861	1367.09106	1753.59570	95.08798	1181.21069	1739.72119	128.38618	1035.18457	1758.36646	113.54819	922.20172	1735.44043	59.00113	793.91925	1756.50159	116.11293	799.61292	1759.49377	87.26024	718.83838	1369.34814	38.66609	1381.87646	1258.83105	99.24439	1189.09460	1244.32983	93.79884	1061.57751	1224.14014	22.96223	958.22498	1259.27490	-93.70132	885.14514	1217.06677	-58.19315	866.16718	1224.84790	-123.82245	814.02679	1596.77515	-34.08429	922.67920	1380.83337	-18.75265	915.22473	1559.68384	155.92174	927.77301	1415.39197	163.08017	931.15961	1650.46692	-86.87988	606.08264	1628.85229	-111.73158	474.71469	1648.81226	-87.72156	287.08026	1602.84253	-70.32214	69.57338	1554.68274	-22.07487	39.04449	1597.22131	-218.23943	33.48046	1321.91992	71.98284	584.35992	1336.74902	96.08294	425.23401	1342.57019	245.75075	328.00668	1387.77197	392.83386	181.52629	1443.61462	440.79242	197.62558	1404.03479	356.31494	41.10695	1491.34705	-77.51434	1679.66125	-3102.01025	1973.11096	1023.35339	-3140.79956	2012.50586	1022.01703						 
89	0.880	1583.06274	-78.72701	1641.31848	1470.73352	-95.11209	1645.64954	1572.45117	43.19794	1617.71240	1452.37488	29.08460	1621.86743	1524.93091	108.23882	1417.23401	1499.99622	143.06714	1121.93640	1523.30273	-34.33517	1346.37073	1519.54077	-77.33466	1193.81128	1436.22388	164.67615	1225.16296	1685.66980	30.44482	1367.72046	1755.64551	81.07500	1181.28870	1742.47021	112.71774	1035.01501	1761.20386	96.57970	922.28827	1738.39160	40.99461	794.60681	1759.64575	97.99180	799.70111	1762.87830	68.42848	719.13373	1370.81665	27.86093	1382.80273	1261.09082	89.76093	1189.69861	1247.38171	84.94047	1062.31653	1226.37964	15.67442	957.88599	1260.40698	-99.87831	882.66339	1218.55664	-63.73978	864.28699	1225.60876	-128.35338	810.96130	1598.74048	-45.25555	923.62231	1382.95898	-29.94630	915.90765	1560.90503	144.63068	928.39099	1416.43604	151.84175	931.16290	1651.21948	-96.49783	605.53735	1629.63855	-119.88416	473.83051	1648.75598	-92.18771	286.89929	1602.71021	-70.76420	69.60027	1554.74304	-22.07768	39.21156	1596.63110	-218.74706	33.04029	1322.10083	53.52715	583.13092	1336.39368	74.73575	424.17679	1342.22241	226.33755	331.09418	1387.67090	377.82877	189.54340	1443.08350	424.17523	208.69136	1403.98499	349.22177	47.19256	1493.57837	-88.75712	1680.17188	-3101.92261	1973.02258	1023.44000	-3140.80518	2012.49072	1022.10944						 
90	0.890	1585.02588	-90.01878	1641.74878	1472.68542	-106.26929	1646.31287	1574.53540	31.92070	1618.21436	1454.45154	17.96883	1622.71985	1526.72363	97.10596	1417.84021	1501.76196	131.94382	1122.59338	1524.59570	-45.48754	1347.09351	1520.63586	-88.36922	1194.48291	1437.74463	153.95590	1226.04590	1687.13464	18.72607	1368.38818	1757.69067	67.06620	1181.61853	1745.15417	97.10736	1035.03442	1764.06677	79.55760	922.57397	1741.25415	22.61168	795.55261	1762.89148	79.53222	800.00635	1766.51465	49.07333	719.96234	1372.36121	17.28525	1383.58948	1263.06824	80.25079	1190.55029	1250.24927	76.14907	1063.03601	1228.45007	8.79497	957.35797	1261.49487	-105.47180	879.94330	1219.87524	-68.91658	862.40918	1226.30249	-132.56653	807.80872	1600.38538	-56.17361	924.46167	1384.64490	-40.46140	916.60626	1562.19434	133.60065	928.98779	1417.55371	141.00307	931.06427	1652.35669	-104.62969	605.14075	1630.85327	-127.00067	473.35614	1648.62280	-95.30759	286.77969	1602.68420	-70.97752	69.80561	1554.49573	-22.36858	39.24158	1596.71582	-218.81760	32.77101	1322.61975	35.19046	581.82458	1336.49109	52.92112	423.24951	1341.59387	206.79150	334.28333	1387.94128	361.23285	197.79549	1443.32434	406.63000	219.31374	1402.87842	339.93439	53.60413	1495.58191	-100.19897	1680.92871	-3101.93604	1973.16760	1023.53668	-3140.89624	2012.46277	1022.07880						 
